<?xml version="1.0" encoding="iso-8859-1"?>
<!-- Generator: Adobe Illustrator 19.0.0, SVG Export Plug-In . SVG Version: 6.00 Build 0)  -->
<svg version="1.1" id="Layer_1" xmlns="http://www.w3.org/2000/svg" xmlns:xlink="http://www.w3.org/1999/xlink" x="0px" y="0px"
	 viewBox="0 0 511.999 511.999" style="enable-background:new 0 0 511.999 511.999;" xml:space="preserve">
<g>
	<g>
		<path d="M511.377,199.774c3.075-27.779-5.312-54.878-23.628-76.312c-32.787-38.344-90.874-45.008-135.143-15.497l-56.869,37.915
			c-12.458-4.543-25.84-7.15-39.851-7.15c-13.953,0-27.281,2.585-39.697,7.093l-56.793-37.86
			C115.092,78.427,57.026,85.113,24.251,123.462C5.934,144.897-2.452,171.996,0.622,199.774
			c2.314,20.804,11.135,40.32,24.889,55.737c-29.908,33.341-34.427,83.683-8.669,122.308c18.62,27.926,49.788,44.601,83.378,44.601
			c19.761,0,38.935-5.817,55.46-16.833l60.509-40.336c12.416,4.508,25.744,7.093,39.697,7.093c14.011,0,27.393-2.606,39.851-7.15
			l60.583,40.393c16.513,11.01,35.687,16.833,55.448,16.833c33.59,0,64.758-16.67,83.39-44.595
			c25.757-38.626,21.228-88.973-8.669-122.314C500.231,240.1,509.063,220.578,511.377,199.774z M255.885,338.971
			c-46.007,0-83.433-37.426-83.433-83.433c0-46.007,37.426-83.433,83.433-83.433s83.433,37.426,83.433,83.433
			C339.318,301.545,301.892,338.971,255.885,338.971z"/>
	</g>
</g>
<g>
</g>
<g>
</g>
<g>
</g>
<g>
</g>
<g>
</g>
<g>
</g>
<g>
</g>
<g>
</g>
<g>
</g>
<g>
</g>
<g>
</g>
<g>
</g>
<g>
</g>
<g>
</g>
<g>
</g>
</svg>
